<?xml version="1.0" encoding="UTF-8"?>
<svg id="Layer_3" data-name="Layer 3" xmlns="http://www.w3.org/2000/svg" viewBox="0 0 500 500">
  <defs>
    <style>
      .cls-1 {
        fill: #031315;
      }
    </style>
  </defs>
  <path class="cls-1" d="M252.1,350.16l-21.56,7.68-1.04,56.1c-1.06,5.86-.15,12.26-1.06,18.16-2.74,17.82-16.44,12.8-18.91-1.67l-12.63-65.94c-19.85.6-40.64-1.19-56.76-13.81-11.62,9.72-22.44,21.55-34.94,30.11-4.52,3.1-14.09,8.82-19.45,9.14-4.21.25-7.76-8.35-5.82-10.76,1.02-1.27,10.1-4.97,12.44-6.28,4.5-2.52,8.83-5.63,12.92-8.76,8.46-6.47,16.78-14.18,23.72-22.12-22.56-27.76-30.65-62.04-21.06-96.91,6.57-23.89,27.03-61.91,53.32-31.92,15.4,17.57,20.55,39.79,29.07,60.6.19.47.05,1.13.72.98l32.4-47.16c.59-14.29,1.34-28.48,1.58-42.76.55-33.72,2.54-76.41,17.99-107.14,7.78-15.46,19.05-26.59,26.99-3.32,17.44,51.12-8.14,112.65-32.53,157.39l-6.02,110.98,12.31-3.45c-.74-4.58-3.09-10.01-3.27-14.61-.41-10.77,7.43-28.57,13.7-37.27,14.41-19.97,46.76-39.07,71.95-34.7s14.51,29.39,4.02,43.18c-16.05,21.08-41.79,36.72-65.22,48.34,30.57,32.79,80.17,13.83,111-8.47,81.27-58.8,86.51-165.01,31.77-244.42C364.4,28.49,281.56-.66,209.93,31.8c-59.31,26.88-111.12,84.05-134.03,144.8-23.36,61.93-26.67,126-8.25,189.79,13.04,45.16,52.91,88.65,96.33,106.64,69.18,28.67,145.25-21.37,194.58-66.48,15.87-14.51,33.78-31.73,46.99-48.58,3.2-4.08,11.44-17.26,14.62-19.38,5.29-3.53,11.63,1.62,10.08,7.62-.78,3.02-11.85,16.6-14.56,19.92-31.55,38.76-71.4,73.59-113.83,99.98-41.65,25.9-95.84,39.59-142.81,19.73-43.23-18.27-72.22-48.38-95.18-88.57-32.32-56.57-25.06-149.51-4.85-209.47C85.22,110.07,152.39,26.39,235.88,8.48c83.87-17.99,169.35,29.89,203.55,106.82,14.21,31.96,21.18,72.58,18.14,107.48-6.64,76.14-85.2,163.15-166.69,150.93-14.86-2.23-31.41-9.96-38.78-23.55ZM258.54,78.19c-1.13-.28-.81.21-1.13.62-9.97,12.87-14.75,42.15-16.11,58.25-1.62,19.22-2.6,39.78-3.47,59.09-.09,1.88.1,3.8.03,5.68l6.49-11.98c10.26-26.34,20.73-57.61,18.65-86.32-.59-8.22-3.97-17-4.46-25.35ZM141.19,215.76c-11.49,1.34-18.83,25.79-20.83,35.35-4.96,23.61-3.27,41.41,5.93,63.54,2.72,6.55,6.43,14.68,12.8,18.25.8,0,3.02-2.48,3.7-3.19,11.43-12.05,25.17-25.2,35.44-37.96.84-1.04,2.47-2.73,2.5-3.9-6.1-22.02-13.05-45.39-26.72-63.98-2.92-3.96-7.45-8.73-12.83-8.1ZM222.09,256.04l-1.13.62-25.47,33.66,11.82,58.83,10.37-2.27,4.4-90.84ZM328.38,266.99c-1.49-1.49-11.89-1.3-14.43-1.12-20.63,1.49-42.46,18.47-53.14,35.53-5.85,9.34-10.28,21.1-4.18,31.46,12.65-5.64,24.83-12.68,36.07-20.75,11.28-8.1,30.95-25.42,35.17-38.72.52-1.62,1.84-5.06.52-6.39ZM185.13,302.84l-34.25,39.43c12.84,6.96,28.32,11.66,42.92,8.87l-8.66-48.29ZM216.67,397.92c-.02-1.03.48-2.06.51-3.18.37-11.15-.33-22.38-.02-33.54-.11-.74.29-.78-.74-.73-2.32.12-4.84,1.41-7.15,1.74,2.3,11.88,5.2,23.73,6.9,35.71.07.47-.05,1,0,1.47,2.01.28.5-1.21.49-1.47Z"/>
</svg>